<svg width="942" height="177" viewBox="0 0 942 177" fill="none" xmlns="http://www.w3.org/2000/svg">
<path d="M132.389 0H44.1295C19.7575 0 0 19.7575 0 44.1295V132.389C0 156.761 19.7575 176.518 44.1295 176.518H132.389C156.761 176.518 176.518 156.761 176.518 132.389V44.1295C176.518 19.7575 156.761 0 132.389 0Z" fill="black"/>
<path d="M115.84 106.628L134.209 88.2591L115.84 69.8902" stroke="white" stroke-width="11.0324" stroke-linecap="round" stroke-linejoin="round"/>
<path d="M60.678 69.8902L42.3091 88.2591L60.678 106.628" stroke="white" stroke-width="11.0324" stroke-linecap="round" stroke-linejoin="round"/>
<path d="M99.7325 51.4661L76.7852 125.052" stroke="white" stroke-width="11.0324" stroke-linecap="round" stroke-linejoin="round"/>
<path d="M283.41 57.8557L262.372 118.032H243.566L222.528 57.8557H240.158L252.655 100.912H253.282L265.741 57.8557H283.41ZM291.951 118.032V57.8557H308.64V118.032H291.951ZM300.334 50.0986C297.853 50.0986 295.725 49.2759 293.949 47.6304C292.199 45.9588 291.324 43.9608 291.324 41.6362C291.324 39.3378 292.199 37.3659 293.949 35.7204C295.725 34.0489 297.853 33.2131 300.334 33.2131C302.816 33.2131 304.931 34.0489 306.681 35.7204C308.457 37.3659 309.345 39.3378 309.345 41.6362C309.345 43.9608 308.457 45.9588 306.681 47.6304C304.931 49.2759 302.816 50.0986 300.334 50.0986ZM322.323 118.032V37.7969H339.012V67.9635H339.522C340.253 66.3442 341.311 64.6987 342.695 63.0272C344.106 61.3295 345.934 59.9191 348.18 58.796C350.452 57.6468 353.273 57.0722 356.642 57.0722C361.03 57.0722 365.079 58.2214 368.787 60.5198C372.496 62.7921 375.461 66.2267 377.681 70.8235C379.901 75.3942 381.011 81.1272 381.011 88.0224C381.011 94.7348 379.927 100.403 377.759 105.025C375.617 109.622 372.692 113.109 368.983 115.486C365.301 117.836 361.174 119.012 356.603 119.012C353.365 119.012 350.609 118.476 348.337 117.406C346.091 116.335 344.249 114.99 342.813 113.37C341.376 111.725 340.279 110.066 339.522 108.395H338.777V118.032H322.323ZM338.66 87.9441C338.66 91.5223 339.156 94.6434 340.149 97.3075C341.141 99.9715 342.578 102.048 344.458 103.537C346.339 104.999 348.624 105.731 351.314 105.731C354.031 105.731 356.329 104.986 358.209 103.498C360.09 101.983 361.513 99.8932 362.48 97.2291C363.472 94.5389 363.969 91.4439 363.969 87.9441C363.969 84.4703 363.485 81.4145 362.519 78.7765C361.553 76.1386 360.129 74.0752 358.249 72.5865C356.368 71.0977 354.057 70.3534 351.314 70.3534C348.598 70.3534 346.299 71.0716 344.419 72.5081C342.565 73.9446 341.141 75.9819 340.149 78.6198C339.156 81.2578 338.66 84.3658 338.66 87.9441ZM419.571 119.208C413.381 119.208 408.053 117.954 403.587 115.447C399.147 112.913 395.725 109.335 393.322 104.712C390.919 100.063 389.718 94.5651 389.718 88.2183C389.718 82.0283 390.919 76.5956 393.322 71.9205C395.725 67.2453 399.108 63.6018 403.469 60.9899C407.857 58.3781 413.002 57.0722 418.905 57.0722C422.875 57.0722 426.571 57.7121 429.992 58.9919C433.44 60.2456 436.444 62.1391 439.003 64.6726C441.589 67.2061 443.6 70.3925 445.037 74.2319C446.473 78.0452 447.191 82.5114 447.191 87.6306V92.2144H396.378V81.8715H431.481C431.481 79.4687 430.959 77.34 429.914 75.4856C428.869 73.6312 427.42 72.1816 425.565 71.1369C423.737 70.0661 421.608 69.5306 419.179 69.5306C416.646 69.5306 414.4 70.1183 412.441 71.2936C410.508 72.4428 408.993 73.9969 407.896 75.9557C406.799 77.8885 406.238 80.0433 406.212 82.42V92.2536C406.212 95.2311 406.76 97.8037 407.857 99.9716C408.98 102.139 410.56 103.811 412.598 104.986C414.635 106.162 417.051 106.749 419.845 106.749C421.7 106.749 423.398 106.488 424.939 105.966C426.48 105.443 427.799 104.66 428.895 103.615C429.992 102.57 430.828 101.291 431.403 99.7757L446.839 100.794C446.055 104.503 444.449 107.742 442.02 110.51C439.617 113.253 436.509 115.394 432.696 116.935C428.909 118.45 424.534 119.208 419.571 119.208ZM485.272 119.208C479.108 119.208 473.806 117.902 469.366 115.29C464.952 112.652 461.556 108.995 459.18 104.32C456.829 99.6451 455.654 94.2647 455.654 88.1791C455.654 82.0152 456.842 76.6087 459.219 71.9596C461.622 67.2845 465.03 63.6409 469.444 61.0291C473.858 58.3912 479.108 57.0722 485.194 57.0722C490.443 57.0722 495.04 58.0255 498.984 59.9321C502.928 61.8388 506.049 64.5159 508.347 67.9635C510.646 71.4111 511.913 75.4595 512.148 80.1086H496.398C495.954 77.1049 494.779 74.689 492.872 72.8607C490.992 71.0063 488.524 70.0791 485.468 70.0791C482.882 70.0791 480.623 70.7843 478.69 72.1947C476.783 73.579 475.295 75.6031 474.224 78.2672C473.153 80.9313 472.618 84.1569 472.618 87.9441C472.618 91.7835 473.14 95.0482 474.185 97.7384C475.256 100.429 476.757 102.479 478.69 103.889C480.623 105.3 482.882 106.005 485.468 106.005C487.374 106.005 489.085 105.613 490.6 104.83C492.141 104.046 493.408 102.91 494.4 101.421C495.419 99.9063 496.085 98.091 496.398 95.9754H512.148C511.886 100.572 510.633 104.621 508.387 108.12C506.167 111.594 503.098 114.311 499.18 116.269C495.262 118.228 490.626 119.208 485.272 119.208ZM550.023 119.208C543.937 119.208 538.674 117.915 534.234 115.329C529.82 112.717 526.412 109.087 524.009 104.438C521.606 99.7626 520.404 94.343 520.404 88.1791C520.404 81.963 521.606 76.5303 524.009 71.8813C526.412 67.2061 529.82 63.5756 534.234 60.9899C538.674 58.3781 543.937 57.0722 550.023 57.0722C556.108 57.0722 561.358 58.3781 565.772 60.9899C570.212 63.5756 573.633 67.2061 576.036 71.8813C578.439 76.5303 579.641 81.963 579.641 88.1791C579.641 94.343 578.439 99.7626 576.036 104.438C573.633 109.087 570.212 112.717 565.772 115.329C561.358 117.915 556.108 119.208 550.023 119.208ZM550.101 106.279C552.869 106.279 555.181 105.496 557.035 103.928C558.89 102.335 560.287 100.167 561.227 97.425C562.194 94.6826 562.677 91.5614 562.677 88.0616C562.677 84.5617 562.194 81.4406 561.227 78.6982C560.287 75.9557 558.89 73.7879 557.035 72.1947C555.181 70.6015 552.869 69.8049 550.101 69.8049C547.306 69.8049 544.956 70.6015 543.049 72.1947C541.168 73.7879 539.745 75.9557 538.779 78.6982C537.838 81.4406 537.368 84.5617 537.368 88.0616C537.368 91.5614 537.838 94.6826 538.779 97.425C539.745 100.167 541.168 102.335 543.049 103.928C544.956 105.496 547.306 106.279 550.101 106.279ZM612.667 119.012C608.097 119.012 603.957 117.836 600.248 115.486C596.565 113.109 593.64 109.622 591.472 105.025C589.331 100.403 588.26 94.7348 588.26 88.0224C588.26 81.1272 589.37 75.3942 591.59 70.8235C593.81 66.2267 596.761 62.7921 600.444 60.5198C604.153 58.2214 608.214 57.0722 612.628 57.0722C615.997 57.0722 618.805 57.6468 621.051 58.796C623.324 59.9191 625.152 61.3295 626.536 63.0272C627.947 64.6987 629.017 66.3442 629.749 67.9635H630.258V37.7969H646.908V118.032H630.454V108.395H629.749C628.965 110.066 627.855 111.725 626.419 113.37C625.008 114.99 623.167 116.335 620.895 117.406C618.648 118.476 615.906 119.012 612.667 119.012ZM617.956 105.731C620.646 105.731 622.919 104.999 624.773 103.537C626.654 102.048 628.09 99.9715 629.083 97.3075C630.101 94.6434 630.611 91.5223 630.611 87.9441C630.611 84.3658 630.114 81.2578 629.122 78.6198C628.129 75.9819 626.693 73.9446 624.812 72.5081C622.932 71.0716 620.646 70.3534 617.956 70.3534C615.214 70.3534 612.902 71.0977 611.022 72.5865C609.141 74.0752 607.718 76.1386 606.752 78.7765C605.785 81.4145 605.302 84.4703 605.302 87.9441C605.302 91.4439 605.785 94.5389 606.752 97.2291C607.744 99.8932 609.167 101.983 611.022 103.498C612.902 104.986 615.214 105.731 617.956 105.731ZM688.055 119.208C681.865 119.208 676.536 117.954 672.07 115.447C667.63 112.913 664.209 109.335 661.806 104.712C659.403 100.063 658.201 94.5651 658.201 88.2183C658.201 82.0283 659.403 76.5956 661.806 71.9205C664.209 67.2453 667.591 63.6018 671.953 60.9899C676.341 58.3781 681.486 57.0722 687.389 57.0722C691.359 57.0722 695.054 57.7121 698.476 58.9919C701.923 60.2456 704.927 62.1391 707.487 64.6726C710.072 67.2061 712.084 70.3925 713.52 74.2319C714.957 78.0452 715.675 82.5114 715.675 87.6306V92.2144H664.862V81.8715H699.965C699.965 79.4687 699.442 77.34 698.398 75.4856C697.353 73.6312 695.903 72.1816 694.049 71.1369C692.221 70.0661 690.092 69.5306 687.663 69.5306C685.129 69.5306 682.883 70.1183 680.924 71.2936C678.992 72.4428 677.477 73.9969 676.38 75.9557C675.283 77.8885 674.721 80.0433 674.695 82.42V92.2536C674.695 95.2311 675.244 97.8037 676.341 99.9716C677.464 102.139 679.044 103.811 681.081 104.986C683.118 106.162 685.534 106.749 688.329 106.749C690.183 106.749 691.881 106.488 693.422 105.966C694.963 105.443 696.282 104.66 697.379 103.615C698.476 102.57 699.312 101.291 699.886 99.7757L715.322 100.794C714.539 104.503 712.932 107.742 710.503 110.51C708.1 113.253 704.992 115.394 701.179 116.935C697.392 118.45 693.017 119.208 688.055 119.208Z" fill="black"/>
<path d="M736.321 119.051C733.736 119.051 731.516 118.137 729.661 116.309C727.833 114.454 726.919 112.234 726.919 109.648C726.919 107.089 727.833 104.895 729.661 103.067C731.516 101.238 733.736 100.324 736.321 100.324C738.829 100.324 741.023 101.238 742.903 103.067C744.784 104.895 745.724 107.089 745.724 109.648C745.724 111.372 745.28 112.952 744.392 114.389C743.53 115.799 742.394 116.935 740.983 117.797C739.573 118.633 738.019 119.051 736.321 119.051ZM776.116 37.7969V118.032H759.426V37.7969H776.116ZM806.645 119.169C802.806 119.169 799.384 118.503 796.38 117.17C793.377 115.812 791 113.814 789.25 111.176C787.526 108.512 786.664 105.195 786.664 101.225C786.664 97.8821 787.278 95.0744 788.506 92.8021C789.733 90.5298 791.405 88.7015 793.52 87.3172C795.636 85.9329 798.039 84.8882 800.729 84.183C803.445 83.4778 806.292 82.9816 809.27 82.6943C812.77 82.3286 815.59 81.9891 817.732 81.6757C819.874 81.3361 821.428 80.8399 822.394 80.1869C823.361 79.534 823.844 78.5676 823.844 77.2878V77.0527C823.844 74.5715 823.06 72.6518 821.493 71.2936C819.952 69.9355 817.758 69.2564 814.911 69.2564C811.908 69.2564 809.518 69.9224 807.742 71.2544C805.966 72.5604 804.791 74.2058 804.216 76.1908L788.78 74.9371C789.564 71.2806 791.105 68.1202 793.403 65.4562C795.701 62.766 798.666 60.7026 802.296 59.2661C805.953 57.8035 810.184 57.0722 814.99 57.0722C818.333 57.0722 821.532 57.464 824.588 58.2475C827.67 59.0311 830.4 60.2456 832.776 61.891C835.179 63.5365 837.073 65.6521 838.457 68.2378C839.841 70.7974 840.533 73.8663 840.533 77.4445V118.032H824.706V109.688H824.236C823.269 111.568 821.976 113.227 820.357 114.663C818.738 116.074 816.792 117.184 814.52 117.993C812.247 118.777 809.622 119.169 806.645 119.169ZM811.425 107.65C813.88 107.65 816.048 107.167 817.928 106.201C819.809 105.208 821.284 103.876 822.355 102.205C823.426 100.533 823.961 98.6395 823.961 96.5239V90.138C823.439 90.4775 822.721 90.791 821.807 91.0783C820.919 91.3394 819.913 91.5876 818.79 91.8226C817.667 92.0316 816.544 92.2275 815.421 92.4103C814.298 92.567 813.279 92.7107 812.365 92.8412C810.406 93.1285 808.695 93.5856 807.233 94.2125C805.77 94.8393 804.634 95.6881 803.824 96.759C803.014 97.8037 802.61 99.1096 802.61 100.677C802.61 102.949 803.432 104.686 805.078 105.887C806.749 107.063 808.865 107.65 811.425 107.65ZM865.352 118.032L848.976 57.8557H865.862L875.186 98.2869H875.734L885.45 57.8557H902.023L911.895 98.0519H912.405L921.572 57.8557H938.418L922.081 118.032H904.412L894.07 80.1869H893.325L882.982 118.032H865.352Z" fill="black"/>
</svg>
