<svg width="1355" height="505" viewBox="0 0 1355 505" fill="none" xmlns="http://www.w3.org/2000/svg">
<g clip-path="url(#clip0_34_8)">
<rect width="1354.32" height="393.097" fill="white"/>
<path d="M237.752 61.0152V112.118H168.372V322.869H104.587V112.118H35.2065V61.0152H237.752ZM316.763 93.0941C305.573 93.0941 296.372 89.8614 289.16 83.3958C282.197 76.6816 278.716 68.4754 278.716 58.7771C278.716 48.8301 282.197 40.6239 289.16 34.1583C296.372 27.4441 305.573 24.087 316.763 24.087C327.705 24.087 336.657 27.4441 343.62 34.1583C350.831 40.6239 354.437 48.8301 354.437 58.7771C354.437 68.4754 350.831 76.6816 343.62 83.3958C336.657 89.8614 327.705 93.0941 316.763 93.0941ZM348.469 114.729V322.869H284.684V114.729H348.469ZM473.399 46.8407V322.869H409.614V46.8407H473.399ZM575.202 177.022C564.011 177.022 554.81 173.789 547.599 167.323C540.636 160.609 537.155 152.403 537.155 142.705C537.155 132.758 540.636 124.427 547.599 117.713C554.81 110.999 564.011 107.642 575.202 107.642C586.143 107.642 595.096 110.999 602.059 117.713C609.27 124.427 612.876 132.758 612.876 142.705C612.876 152.403 609.27 160.609 602.059 167.323C595.096 173.789 586.143 177.022 575.202 177.022ZM612.13 263.933L570.726 370.988H530.067L551.702 263.933H612.13ZM666.097 218.426C666.097 197.04 670.076 178.265 678.033 162.101C686.24 145.937 697.306 133.504 711.231 124.8C725.157 116.097 740.699 111.745 757.858 111.745C771.535 111.745 783.969 114.604 795.159 120.324C806.598 126.043 815.55 133.752 822.016 143.451V46.8407H885.801V322.869H822.016V293.028C816.048 302.975 807.468 310.933 796.278 316.901C785.336 322.869 772.53 325.853 757.858 325.853C740.699 325.853 725.157 321.501 711.231 312.798C697.306 303.846 686.24 291.288 678.033 275.124C670.076 258.711 666.097 239.812 666.097 218.426ZM822.016 218.799C822.016 202.884 817.54 190.326 808.587 181.125C799.884 171.924 789.191 167.323 776.508 167.323C763.826 167.323 753.009 171.924 744.056 181.125C735.353 190.077 731.001 202.511 731.001 218.426C731.001 234.341 735.353 247.023 744.056 256.473C753.009 265.674 763.826 270.275 776.508 270.275C789.191 270.275 799.884 265.674 808.587 256.473C817.54 247.272 822.016 234.714 822.016 218.799ZM1143.07 215.442C1143.07 221.41 1142.7 227.627 1141.95 234.092H997.596C998.591 247.023 1002.69 256.97 1009.91 263.933C1017.37 270.648 1026.44 274.005 1037.14 274.005C1053.05 274.005 1064.12 267.29 1070.33 253.862H1138.22C1134.74 267.539 1128.4 279.848 1119.2 290.79C1110.25 301.732 1098.93 310.311 1085.25 316.528C1071.58 322.745 1056.28 325.853 1039.37 325.853C1018.98 325.853 1000.83 321.501 984.914 312.798C968.999 304.094 956.565 291.661 947.613 275.497C938.66 259.333 934.184 240.434 934.184 218.799C934.184 197.164 938.536 178.265 947.24 162.101C956.192 145.937 968.626 133.504 984.541 124.8C1000.46 116.097 1018.73 111.745 1039.37 111.745C1059.52 111.745 1077.42 115.972 1093.09 124.427C1108.75 132.882 1120.94 144.943 1129.64 160.609C1138.59 176.276 1143.07 194.553 1143.07 215.442ZM1077.79 198.656C1077.79 187.715 1074.06 179.011 1066.6 172.546C1059.14 166.08 1049.82 162.847 1038.63 162.847C1027.93 162.847 1018.86 165.956 1011.4 172.173C1004.19 178.389 999.71 187.217 997.969 198.656H1077.79ZM1255.43 149.419C1262.89 137.98 1272.21 129.028 1283.4 122.562C1294.59 115.848 1307.03 112.491 1320.7 112.491V180.006H1303.17C1287.26 180.006 1275.32 183.487 1267.36 190.45C1259.4 197.164 1255.43 209.101 1255.43 226.259V322.869H1191.64V114.729H1255.43V149.419Z" fill="black"/>
<path d="M-6.10352e-05 393.097H685.767V505H-6.10352e-05V393.097Z" fill="white"/>
<path d="M58.1934 448.573C60.8714 449.051 63.143 450.462 65.008 452.805C66.8731 455.149 67.8056 457.803 67.8056 460.768C67.8056 463.302 67.1361 465.598 65.7971 467.654C64.5059 469.663 62.6169 471.265 60.1302 472.46C57.6434 473.608 54.7502 474.182 51.4505 474.182H31.5087V424.327H50.518C53.9133 424.327 56.8305 424.901 59.2694 426.049C61.7083 427.197 63.5494 428.751 64.7928 430.712C66.0362 432.625 66.6579 434.777 66.6579 437.168C66.6579 440.037 65.8927 442.428 64.3624 444.341C62.8321 446.254 60.7758 447.665 58.1934 448.573ZM39.6863 445.274H49.8006C52.4787 445.274 54.5589 444.676 56.0414 443.48C57.5717 442.237 58.3368 440.467 58.3368 438.172C58.3368 435.924 57.5717 434.179 56.0414 432.935C54.5589 431.644 52.4787 430.999 49.8006 430.999H39.6863V445.274ZM50.7332 467.511C53.5068 467.511 55.6827 466.841 57.2609 465.502C58.839 464.163 59.628 462.298 59.628 459.907C59.628 457.468 58.7912 455.531 57.1174 454.097C55.4436 452.662 53.2199 451.945 50.4462 451.945H39.6863V467.511H50.7332ZM120.808 424.327L104.309 456.105V474.182H96.1317V456.105L79.5614 424.327H88.6715L100.22 448.788L111.769 424.327H120.808ZM192.486 424.327V430.999H179.215V474.182H171.038V430.999H157.695V424.327H192.486ZM237.997 463.996H217.123L213.536 474.182H205L222.861 424.256H232.33L250.192 474.182H241.584L237.997 463.996ZM235.702 457.325L227.596 434.155L219.418 457.325H235.702ZM262.405 449.147C262.405 444.269 263.529 439.894 265.777 436.02C268.072 432.146 271.157 429.134 275.03 426.982C278.952 424.782 283.232 423.682 287.871 423.682C293.179 423.682 297.889 424.997 302.002 427.627C306.162 430.21 309.175 433.892 311.04 438.674H301.213C299.922 436.044 298.128 434.083 295.833 432.792C293.537 431.501 290.883 430.855 287.871 430.855C284.571 430.855 281.63 431.596 279.047 433.079C276.465 434.561 274.433 436.689 272.95 439.463C271.515 442.237 270.798 445.465 270.798 449.147C270.798 452.829 271.515 456.057 272.95 458.831C274.433 461.605 276.465 463.757 279.047 465.287C281.63 466.769 284.571 467.511 287.871 467.511C290.883 467.511 293.537 466.865 295.833 465.574C298.128 464.283 299.922 462.322 301.213 459.692H311.04C309.175 464.474 306.162 468.156 302.002 470.739C297.889 473.321 293.179 474.612 287.871 474.612C283.184 474.612 278.904 473.536 275.03 471.384C271.157 469.184 268.072 466.148 265.777 462.274C263.529 458.401 262.405 454.025 262.405 449.147ZM335.963 424.327V474.182H327.785V424.327H335.963ZM386.081 424.327V430.999H372.81V474.182H364.633V430.999H351.29V424.327H386.081ZM435.52 467.582H452.378V474.182H427.343V424.327H435.52V467.582ZM474.567 430.927V445.56H491.783V452.232H474.567V467.511H493.935V474.182H466.39V424.256H493.935V430.927H474.567ZM547.262 438.674C545.971 436.187 544.178 434.322 541.882 433.079C539.587 431.788 536.933 431.142 533.92 431.142C530.62 431.142 527.679 431.883 525.097 433.366C522.515 434.848 520.482 436.952 519 439.678C517.565 442.404 516.848 445.56 516.848 449.147C516.848 452.734 517.565 455.914 519 458.688C520.482 461.413 522.515 463.518 525.097 465C527.679 466.483 530.62 467.224 533.92 467.224C538.368 467.224 541.978 465.98 544.752 463.494C547.525 461.007 549.223 457.635 549.845 453.379H531.123V446.852H558.596V453.236C558.07 457.109 556.683 460.672 554.436 463.924C552.236 467.176 549.343 469.782 545.756 471.743C542.217 473.656 538.272 474.612 533.92 474.612C529.234 474.612 524.954 473.536 521.08 471.384C517.206 469.184 514.122 466.148 511.826 462.274C509.579 458.401 508.455 454.025 508.455 449.147C508.455 444.269 509.579 439.894 511.826 436.02C514.122 432.146 517.206 429.134 521.08 426.982C525.001 424.782 529.281 423.682 533.92 423.682C539.228 423.682 543.939 424.997 548.052 427.627C552.212 430.21 555.225 433.892 557.09 438.674H547.262ZM603.891 463.996H583.017L579.43 474.182H570.894L588.755 424.256H598.224L616.086 474.182H607.478L603.891 463.996ZM601.596 457.325L593.49 434.155L585.312 457.325H601.596ZM639.203 467.582H656.06V474.182H631.025V424.327H639.203V467.582Z" fill="black"/>
</g>
<defs>
<clipPath id="clip0_34_8">
<rect width="1354.32" height="505" fill="white"/>
</clipPath>
</defs>
</svg>
